# xmcd
#
# Track frame offsets: 
#        150
#        24733
#        45269
#        67330
#        83381
#        101895
#        122377
#        144424
#        175291
#
# Disc length: 4440 seconds
#
# Revision: 0
# Processed by: cddbd v1.5.2PL0 Copyright (c) Steve Scherf et al.
# Submitted via: ExactAudioCopy v0.99pb4
#
DISCID=71115609
DTITLE=The Gene Dunlap Band - Tired Of Being A Nice Guy
DYEAR=1983
DGENRE=Funk
TTITLE0=When You're Hot
TTITLE1=Anytime You Want 
TTITLE2=Take Back My Love
TTITLE3=There's Talk
TTITLE4=She Had No Place To Go
TTITLE5=Your Love Is Too Much
TTITLE6=Seems You've Been With Me
TTITLE7=In Just A Matter Of Time
TTITLE8=Data
EXTD=
EXTT0=
EXTT1=
EXTT2=
EXTT3=
EXTT4=
EXTT5=
EXTT6=
EXTT7=
EXTT8=
PLAYORDER=
